<?xml version="1.0" standalone="no"?>
<!DOCTYPE svg PUBLIC "-//W3C//DTD SVG 20010904//EN"
 "http://www.w3.org/TR/2001/REC-SVG-20010904/DTD/svg10.dtd">
<svg version="1.0" xmlns="http://www.w3.org/2000/svg"
 width="512.000000pt" height="512.000000pt" viewBox="0 0 512.000000 512.000000"
 preserveAspectRatio="xMidYMid meet">
<metadata>
Created by potrace 1.16, written by Peter Selinger 2001-2019
</metadata>
<g transform="translate(0.000000,512.000000) scale(0.100000,-0.100000)"
fill="#000000" stroke="none">
<path d="M3129 5104 c-155 -28 -317 -91 -452 -178 -65 -42 -87 -73 -87 -123 0
-37 23 -61 812 -849 530 -531 820 -814 836 -817 41 -8 90 12 120 49 45 54 128
220 161 320 109 335 68 719 -108 1012 -188 313 -494 525 -845 587 -109 19
-332 19 -437 -1z"/>
<path d="M2345 4585 c-60 -33 -90 -72 -155 -205 -85 -171 -123 -340 -123 -545
0 -203 40 -371 130 -550 309 -615 1061 -854 1675 -533 111 58 164 105 178 158
23 84 52 51 -773 878 -419 420 -776 772 -792 782 -45 28 -104 34 -140 15z"/>
<path d="M1809 3287 c-37 -25 -1215 -1534 -1246 -1596 -13 -26 -18 -59 -18
-121 0 -115 17 -145 179 -307 142 -143 185 -170 281 -180 104 -11 132 5 471
269 170 132 335 260 367 285 l57 44 0 -680 0 -680 -337 -3 c-317 -3 -340 -4
-372 -23 -51 -30 -74 -67 -78 -127 -5 -65 17 -112 66 -145 l34 -23 853 2 853
3 36 35 c77 75 67 189 -23 250 l-35 25 -339 3 -338 3 0 804 0 805 240 186
c252 195 296 237 306 291 17 93 -20 137 -186 220 -63 32 -141 76 -173 97 -133
89 -242 226 -336 421 -62 130 -100 165 -175 165 -39 0 -62 -6 -87 -23z"/>
</g>
</svg>
